<mxfile host="Electron" agent="Mozilla/5.0 (Macintosh; Intel Mac OS X 10_15_7) AppleWebKit/537.36 (KHTML, like Gecko) draw.io/24.7.17 Chrome/128.0.6613.36 Electron/32.0.1 Safari/537.36" version="24.7.17">
  <diagram name="Page-1" id="Q-DnUiAlC5ye-ez6OB5u">
    <mxGraphModel dx="1451" dy="931" grid="1" gridSize="10" guides="1" tooltips="1" connect="1" arrows="1" fold="1" page="1" pageScale="1" pageWidth="827" pageHeight="1169" math="0" shadow="0">
      <root>
        <mxCell id="0" />
        <mxCell id="1" parent="0" />
        <mxCell id="0grsNlicwpP98fwowqwC-152" value="" style="endArrow=none;html=1;rounded=0;" edge="1" parent="1">
          <mxGeometry width="50" height="50" relative="1" as="geometry">
            <mxPoint x="264.87" y="740" as="sourcePoint" />
            <mxPoint x="264.87" y="710" as="targetPoint" />
          </mxGeometry>
        </mxCell>
        <mxCell id="0grsNlicwpP98fwowqwC-153" value="" style="endArrow=none;html=1;rounded=0;" edge="1" parent="1">
          <mxGeometry width="50" height="50" relative="1" as="geometry">
            <mxPoint x="274.87" y="740" as="sourcePoint" />
            <mxPoint x="274.87" y="710" as="targetPoint" />
          </mxGeometry>
        </mxCell>
        <mxCell id="0grsNlicwpP98fwowqwC-154" value="" style="endArrow=none;html=1;rounded=0;" edge="1" parent="1">
          <mxGeometry width="50" height="50" relative="1" as="geometry">
            <mxPoint x="284.87" y="740" as="sourcePoint" />
            <mxPoint x="284.87" y="710" as="targetPoint" />
          </mxGeometry>
        </mxCell>
        <mxCell id="0grsNlicwpP98fwowqwC-155" value="" style="endArrow=none;html=1;rounded=0;" edge="1" parent="1">
          <mxGeometry width="50" height="50" relative="1" as="geometry">
            <mxPoint x="294.87" y="740" as="sourcePoint" />
            <mxPoint x="294.87" y="710" as="targetPoint" />
          </mxGeometry>
        </mxCell>
        <mxCell id="0grsNlicwpP98fwowqwC-156" value="&lt;span style=&quot;font-size: 6.66667px;&quot;&gt;c&lt;sub&gt;0&lt;/sub&gt;&lt;/span&gt;" style="text;html=1;align=center;verticalAlign=middle;whiteSpace=wrap;rounded=0;" vertex="1" parent="1">
          <mxGeometry x="260" y="740" width="10" as="geometry" />
        </mxCell>
        <mxCell id="0grsNlicwpP98fwowqwC-157" value="&lt;span style=&quot;font-size: 6.66667px;&quot;&gt;c&lt;/span&gt;&lt;span style=&quot;font-size: 5.55556px;&quot;&gt;&lt;sub&gt;1&lt;/sub&gt;&lt;/span&gt;" style="text;html=1;align=center;verticalAlign=middle;whiteSpace=wrap;rounded=0;" vertex="1" parent="1">
          <mxGeometry x="270" y="740" width="10" as="geometry" />
        </mxCell>
        <mxCell id="0grsNlicwpP98fwowqwC-158" value="&lt;span style=&quot;font-size: 6.66667px;&quot;&gt;c&lt;sub&gt;2&lt;/sub&gt;&lt;/span&gt;" style="text;html=1;align=center;verticalAlign=middle;whiteSpace=wrap;rounded=0;" vertex="1" parent="1">
          <mxGeometry x="280" y="740" width="10" as="geometry" />
        </mxCell>
        <mxCell id="0grsNlicwpP98fwowqwC-151" value="" style="rounded=0;whiteSpace=wrap;html=1;" vertex="1" parent="1">
          <mxGeometry x="150" y="90" width="260" height="630" as="geometry" />
        </mxCell>
        <mxCell id="0grsNlicwpP98fwowqwC-61" value="" style="endArrow=none;html=1;rounded=0;" edge="1" parent="1">
          <mxGeometry width="50" height="50" relative="1" as="geometry">
            <mxPoint x="224.87" y="530" as="sourcePoint" />
            <mxPoint x="224.87" y="500" as="targetPoint" />
          </mxGeometry>
        </mxCell>
        <mxCell id="0grsNlicwpP98fwowqwC-62" value="" style="endArrow=none;html=1;rounded=0;" edge="1" parent="1">
          <mxGeometry width="50" height="50" relative="1" as="geometry">
            <mxPoint x="234.87" y="530" as="sourcePoint" />
            <mxPoint x="234.87" y="500" as="targetPoint" />
          </mxGeometry>
        </mxCell>
        <mxCell id="0grsNlicwpP98fwowqwC-63" value="&lt;span style=&quot;font-size: 6.66667px;&quot;&gt;c&lt;/span&gt;&lt;span style=&quot;font-size: 5.55556px;&quot;&gt;&lt;sub&gt;2&lt;/sub&gt;&lt;/span&gt;" style="text;html=1;align=center;verticalAlign=middle;whiteSpace=wrap;rounded=0;" vertex="1" parent="1">
          <mxGeometry x="220" y="530" width="10" as="geometry" />
        </mxCell>
        <mxCell id="0grsNlicwpP98fwowqwC-64" value="&lt;span style=&quot;font-size: 6.66667px;&quot;&gt;c&lt;/span&gt;&lt;span style=&quot;font-size: 5.55556px;&quot;&gt;&lt;sub&gt;3&lt;/sub&gt;&lt;/span&gt;" style="text;html=1;align=center;verticalAlign=middle;whiteSpace=wrap;rounded=0;" vertex="1" parent="1">
          <mxGeometry x="230" y="530" width="10" as="geometry" />
        </mxCell>
        <mxCell id="0grsNlicwpP98fwowqwC-65" value="" style="endArrow=none;html=1;rounded=0;" edge="1" parent="1">
          <mxGeometry width="50" height="50" relative="1" as="geometry">
            <mxPoint x="190" y="440" as="sourcePoint" />
            <mxPoint x="210" y="440" as="targetPoint" />
          </mxGeometry>
        </mxCell>
        <mxCell id="0grsNlicwpP98fwowqwC-66" value="" style="endArrow=none;html=1;rounded=0;" edge="1" parent="1">
          <mxGeometry width="50" height="50" relative="1" as="geometry">
            <mxPoint x="190" y="460" as="sourcePoint" />
            <mxPoint x="210" y="460" as="targetPoint" />
          </mxGeometry>
        </mxCell>
        <mxCell id="0grsNlicwpP98fwowqwC-67" value="" style="endArrow=none;html=1;rounded=0;" edge="1" parent="1">
          <mxGeometry width="50" height="50" relative="1" as="geometry">
            <mxPoint x="190" y="480" as="sourcePoint" />
            <mxPoint x="210" y="480" as="targetPoint" />
          </mxGeometry>
        </mxCell>
        <mxCell id="0grsNlicwpP98fwowqwC-68" value="" style="endArrow=none;html=1;rounded=0;" edge="1" parent="1">
          <mxGeometry width="50" height="50" relative="1" as="geometry">
            <mxPoint x="190" y="500" as="sourcePoint" />
            <mxPoint x="210" y="500" as="targetPoint" />
          </mxGeometry>
        </mxCell>
        <mxCell id="0grsNlicwpP98fwowqwC-69" value="&lt;font style=&quot;font-size: 8px;&quot;&gt;x&lt;sub&gt;8&lt;/sub&gt;&lt;/font&gt;" style="text;html=1;align=center;verticalAlign=middle;whiteSpace=wrap;rounded=0;" vertex="1" parent="1">
          <mxGeometry x="180" y="430" width="10" as="geometry" />
        </mxCell>
        <mxCell id="0grsNlicwpP98fwowqwC-70" value="&lt;font style=&quot;font-size: 8px;&quot;&gt;x&lt;/font&gt;&lt;font style=&quot;font-size: 6.66667px;&quot;&gt;&lt;sub&gt;9&lt;/sub&gt;&lt;/font&gt;" style="text;html=1;align=center;verticalAlign=middle;whiteSpace=wrap;rounded=0;" vertex="1" parent="1">
          <mxGeometry x="180" y="450" width="10" as="geometry" />
        </mxCell>
        <mxCell id="0grsNlicwpP98fwowqwC-71" value="&lt;font style=&quot;font-size: 8px;&quot;&gt;x&lt;sub&gt;10&lt;/sub&gt;&lt;/font&gt;" style="text;html=1;align=center;verticalAlign=middle;whiteSpace=wrap;rounded=0;" vertex="1" parent="1">
          <mxGeometry x="180" y="470" width="10" as="geometry" />
        </mxCell>
        <mxCell id="0grsNlicwpP98fwowqwC-72" value="&lt;font style=&quot;font-size: 8px;&quot;&gt;x&lt;sub&gt;11&lt;/sub&gt;&lt;/font&gt;" style="text;html=1;align=center;verticalAlign=middle;whiteSpace=wrap;rounded=0;" vertex="1" parent="1">
          <mxGeometry x="180" y="490" width="10" as="geometry" />
        </mxCell>
        <mxCell id="0grsNlicwpP98fwowqwC-73" value="mux 4:1" style="shape=trapezoid;perimeter=trapezoidPerimeter;whiteSpace=wrap;html=1;fixedSize=1;rotation=90;" vertex="1" parent="1">
          <mxGeometry x="180" y="450" width="100" height="40" as="geometry" />
        </mxCell>
        <mxCell id="0grsNlicwpP98fwowqwC-74" value="" style="endArrow=none;html=1;rounded=0;exitX=0.5;exitY=0;exitDx=0;exitDy=0;" edge="1" parent="1">
          <mxGeometry width="50" height="50" relative="1" as="geometry">
            <mxPoint x="250" y="469.74" as="sourcePoint" />
            <mxPoint x="270" y="469.74" as="targetPoint" />
          </mxGeometry>
        </mxCell>
        <mxCell id="0grsNlicwpP98fwowqwC-75" value="&lt;span style=&quot;font-size: 8px;&quot;&gt;u&lt;sub&gt;3&lt;/sub&gt;&lt;/span&gt;" style="text;html=1;align=center;verticalAlign=middle;whiteSpace=wrap;rounded=0;" vertex="1" parent="1">
          <mxGeometry x="260" y="474.75" width="10" as="geometry" />
        </mxCell>
        <mxCell id="0grsNlicwpP98fwowqwC-76" value="" style="endArrow=none;html=1;rounded=0;" edge="1" parent="1">
          <mxGeometry width="50" height="50" relative="1" as="geometry">
            <mxPoint x="224.87" y="370" as="sourcePoint" />
            <mxPoint x="224.87" y="340" as="targetPoint" />
          </mxGeometry>
        </mxCell>
        <mxCell id="0grsNlicwpP98fwowqwC-77" value="" style="endArrow=none;html=1;rounded=0;" edge="1" parent="1">
          <mxGeometry width="50" height="50" relative="1" as="geometry">
            <mxPoint x="234.87" y="370" as="sourcePoint" />
            <mxPoint x="234.87" y="340" as="targetPoint" />
          </mxGeometry>
        </mxCell>
        <mxCell id="0grsNlicwpP98fwowqwC-78" value="&lt;span style=&quot;font-size: 6.66667px;&quot;&gt;c&lt;/span&gt;&lt;span style=&quot;font-size: 4.62963px;&quot;&gt;&lt;sub&gt;2&lt;/sub&gt;&lt;/span&gt;" style="text;html=1;align=center;verticalAlign=middle;whiteSpace=wrap;rounded=0;" vertex="1" parent="1">
          <mxGeometry x="220" y="370" width="10" as="geometry" />
        </mxCell>
        <mxCell id="0grsNlicwpP98fwowqwC-79" value="&lt;span style=&quot;font-size: 6.66667px;&quot;&gt;c&lt;/span&gt;&lt;span style=&quot;font-size: 5.55556px;&quot;&gt;&lt;sub&gt;3&lt;/sub&gt;&lt;/span&gt;" style="text;html=1;align=center;verticalAlign=middle;whiteSpace=wrap;rounded=0;" vertex="1" parent="1">
          <mxGeometry x="230" y="370" width="10" as="geometry" />
        </mxCell>
        <mxCell id="0grsNlicwpP98fwowqwC-80" value="" style="endArrow=none;html=1;rounded=0;" edge="1" parent="1">
          <mxGeometry width="50" height="50" relative="1" as="geometry">
            <mxPoint x="190" y="280" as="sourcePoint" />
            <mxPoint x="210" y="280" as="targetPoint" />
          </mxGeometry>
        </mxCell>
        <mxCell id="0grsNlicwpP98fwowqwC-81" value="" style="endArrow=none;html=1;rounded=0;" edge="1" parent="1">
          <mxGeometry width="50" height="50" relative="1" as="geometry">
            <mxPoint x="190" y="300" as="sourcePoint" />
            <mxPoint x="210" y="300" as="targetPoint" />
          </mxGeometry>
        </mxCell>
        <mxCell id="0grsNlicwpP98fwowqwC-82" value="" style="endArrow=none;html=1;rounded=0;" edge="1" parent="1">
          <mxGeometry width="50" height="50" relative="1" as="geometry">
            <mxPoint x="190" y="320" as="sourcePoint" />
            <mxPoint x="210" y="320" as="targetPoint" />
          </mxGeometry>
        </mxCell>
        <mxCell id="0grsNlicwpP98fwowqwC-83" value="" style="endArrow=none;html=1;rounded=0;" edge="1" parent="1">
          <mxGeometry width="50" height="50" relative="1" as="geometry">
            <mxPoint x="190" y="340" as="sourcePoint" />
            <mxPoint x="210" y="340" as="targetPoint" />
          </mxGeometry>
        </mxCell>
        <mxCell id="0grsNlicwpP98fwowqwC-84" value="&lt;font style=&quot;font-size: 8px;&quot;&gt;x&lt;sub&gt;4&lt;/sub&gt;&lt;/font&gt;" style="text;html=1;align=center;verticalAlign=middle;whiteSpace=wrap;rounded=0;" vertex="1" parent="1">
          <mxGeometry x="180" y="270" width="10" as="geometry" />
        </mxCell>
        <mxCell id="0grsNlicwpP98fwowqwC-85" value="&lt;font style=&quot;font-size: 8px;&quot;&gt;x&lt;/font&gt;&lt;font style=&quot;font-size: 6.66667px;&quot;&gt;&lt;sub&gt;5&lt;/sub&gt;&lt;/font&gt;" style="text;html=1;align=center;verticalAlign=middle;whiteSpace=wrap;rounded=0;" vertex="1" parent="1">
          <mxGeometry x="180" y="290" width="10" as="geometry" />
        </mxCell>
        <mxCell id="0grsNlicwpP98fwowqwC-86" value="&lt;font style=&quot;font-size: 8px;&quot;&gt;x&lt;sub&gt;6&lt;/sub&gt;&lt;/font&gt;" style="text;html=1;align=center;verticalAlign=middle;whiteSpace=wrap;rounded=0;" vertex="1" parent="1">
          <mxGeometry x="180" y="310" width="10" as="geometry" />
        </mxCell>
        <mxCell id="0grsNlicwpP98fwowqwC-87" value="&lt;font style=&quot;font-size: 8px;&quot;&gt;x&lt;sub&gt;7&lt;/sub&gt;&lt;/font&gt;" style="text;html=1;align=center;verticalAlign=middle;whiteSpace=wrap;rounded=0;" vertex="1" parent="1">
          <mxGeometry x="180" y="330" width="10" as="geometry" />
        </mxCell>
        <mxCell id="0grsNlicwpP98fwowqwC-88" value="mux 4:1" style="shape=trapezoid;perimeter=trapezoidPerimeter;whiteSpace=wrap;html=1;fixedSize=1;rotation=90;" vertex="1" parent="1">
          <mxGeometry x="180" y="290" width="100" height="40" as="geometry" />
        </mxCell>
        <mxCell id="0grsNlicwpP98fwowqwC-89" value="" style="endArrow=none;html=1;rounded=0;exitX=0.5;exitY=0;exitDx=0;exitDy=0;" edge="1" parent="1">
          <mxGeometry width="50" height="50" relative="1" as="geometry">
            <mxPoint x="250" y="309.74" as="sourcePoint" />
            <mxPoint x="270" y="309.74" as="targetPoint" />
          </mxGeometry>
        </mxCell>
        <mxCell id="0grsNlicwpP98fwowqwC-90" value="&lt;span style=&quot;font-size: 8px;&quot;&gt;u&lt;sub&gt;2&lt;/sub&gt;&lt;/span&gt;" style="text;html=1;align=center;verticalAlign=middle;whiteSpace=wrap;rounded=0;" vertex="1" parent="1">
          <mxGeometry x="260" y="299.74" width="10" as="geometry" />
        </mxCell>
        <mxCell id="0grsNlicwpP98fwowqwC-95" value="" style="endArrow=none;html=1;rounded=0;" edge="1" parent="1">
          <mxGeometry width="50" height="50" relative="1" as="geometry">
            <mxPoint x="190" y="595" as="sourcePoint" />
            <mxPoint x="210" y="595" as="targetPoint" />
          </mxGeometry>
        </mxCell>
        <mxCell id="0grsNlicwpP98fwowqwC-96" value="" style="endArrow=none;html=1;rounded=0;" edge="1" parent="1">
          <mxGeometry width="50" height="50" relative="1" as="geometry">
            <mxPoint x="190" y="615" as="sourcePoint" />
            <mxPoint x="210" y="615" as="targetPoint" />
          </mxGeometry>
        </mxCell>
        <mxCell id="0grsNlicwpP98fwowqwC-97" value="" style="endArrow=none;html=1;rounded=0;" edge="1" parent="1">
          <mxGeometry width="50" height="50" relative="1" as="geometry">
            <mxPoint x="190" y="635" as="sourcePoint" />
            <mxPoint x="210" y="635" as="targetPoint" />
          </mxGeometry>
        </mxCell>
        <mxCell id="0grsNlicwpP98fwowqwC-98" value="" style="endArrow=none;html=1;rounded=0;" edge="1" parent="1">
          <mxGeometry width="50" height="50" relative="1" as="geometry">
            <mxPoint x="190" y="655" as="sourcePoint" />
            <mxPoint x="210" y="655" as="targetPoint" />
          </mxGeometry>
        </mxCell>
        <mxCell id="0grsNlicwpP98fwowqwC-99" value="&lt;font style=&quot;font-size: 8px;&quot;&gt;x&lt;sub&gt;12&lt;/sub&gt;&lt;/font&gt;" style="text;html=1;align=center;verticalAlign=middle;whiteSpace=wrap;rounded=0;" vertex="1" parent="1">
          <mxGeometry x="180" y="585" width="10" as="geometry" />
        </mxCell>
        <mxCell id="0grsNlicwpP98fwowqwC-100" value="&lt;font style=&quot;font-size: 8px;&quot;&gt;x&lt;/font&gt;&lt;font style=&quot;font-size: 6.66667px;&quot;&gt;&lt;sub&gt;13&lt;/sub&gt;&lt;/font&gt;" style="text;html=1;align=center;verticalAlign=middle;whiteSpace=wrap;rounded=0;" vertex="1" parent="1">
          <mxGeometry x="180" y="605" width="10" as="geometry" />
        </mxCell>
        <mxCell id="0grsNlicwpP98fwowqwC-101" value="&lt;font style=&quot;font-size: 8px;&quot;&gt;x&lt;sub&gt;14&lt;/sub&gt;&lt;/font&gt;" style="text;html=1;align=center;verticalAlign=middle;whiteSpace=wrap;rounded=0;" vertex="1" parent="1">
          <mxGeometry x="180" y="625" width="10" as="geometry" />
        </mxCell>
        <mxCell id="0grsNlicwpP98fwowqwC-102" value="&lt;font style=&quot;font-size: 8px;&quot;&gt;x&lt;sub&gt;15&lt;/sub&gt;&lt;/font&gt;" style="text;html=1;align=center;verticalAlign=middle;whiteSpace=wrap;rounded=0;" vertex="1" parent="1">
          <mxGeometry x="180" y="645" width="10" as="geometry" />
        </mxCell>
        <mxCell id="0grsNlicwpP98fwowqwC-104" value="" style="endArrow=none;html=1;rounded=0;exitX=0.5;exitY=0;exitDx=0;exitDy=0;" edge="1" parent="1">
          <mxGeometry width="50" height="50" relative="1" as="geometry">
            <mxPoint x="250" y="624.74" as="sourcePoint" />
            <mxPoint x="290" y="625" as="targetPoint" />
          </mxGeometry>
        </mxCell>
        <mxCell id="0grsNlicwpP98fwowqwC-105" value="&lt;span style=&quot;font-size: 8px;&quot;&gt;u&lt;sub&gt;4&lt;/sub&gt;&lt;/span&gt;" style="text;html=1;align=center;verticalAlign=middle;whiteSpace=wrap;rounded=0;" vertex="1" parent="1">
          <mxGeometry x="260" y="630" width="10" as="geometry" />
        </mxCell>
        <mxCell id="0grsNlicwpP98fwowqwC-121" value="" style="endArrow=none;html=1;rounded=0;" edge="1" parent="1">
          <mxGeometry width="50" height="50" relative="1" as="geometry">
            <mxPoint x="374.87" y="450" as="sourcePoint" />
            <mxPoint x="374.87" y="420" as="targetPoint" />
          </mxGeometry>
        </mxCell>
        <mxCell id="0grsNlicwpP98fwowqwC-122" value="" style="endArrow=none;html=1;rounded=0;" edge="1" parent="1">
          <mxGeometry width="50" height="50" relative="1" as="geometry">
            <mxPoint x="384.87" y="450" as="sourcePoint" />
            <mxPoint x="384.87" y="420" as="targetPoint" />
          </mxGeometry>
        </mxCell>
        <mxCell id="0grsNlicwpP98fwowqwC-123" value="&lt;span style=&quot;font-size: 6.66667px;&quot;&gt;c&lt;sub&gt;0&lt;/sub&gt;&lt;/span&gt;" style="text;html=1;align=center;verticalAlign=middle;whiteSpace=wrap;rounded=0;" vertex="1" parent="1">
          <mxGeometry x="370" y="450" width="10" as="geometry" />
        </mxCell>
        <mxCell id="0grsNlicwpP98fwowqwC-124" value="&lt;span style=&quot;font-size: 6.66667px;&quot;&gt;c&lt;sub&gt;1&lt;/sub&gt;&lt;/span&gt;" style="text;html=1;align=center;verticalAlign=middle;whiteSpace=wrap;rounded=0;" vertex="1" parent="1">
          <mxGeometry x="380" y="450" width="10" as="geometry" />
        </mxCell>
        <mxCell id="0grsNlicwpP98fwowqwC-125" value="" style="endArrow=none;html=1;rounded=0;" edge="1" parent="1">
          <mxGeometry width="50" height="50" relative="1" as="geometry">
            <mxPoint x="290" y="360" as="sourcePoint" />
            <mxPoint x="360" y="360" as="targetPoint" />
          </mxGeometry>
        </mxCell>
        <mxCell id="0grsNlicwpP98fwowqwC-126" value="" style="endArrow=none;html=1;rounded=0;" edge="1" parent="1">
          <mxGeometry width="50" height="50" relative="1" as="geometry">
            <mxPoint x="270" y="380" as="sourcePoint" />
            <mxPoint x="360" y="380" as="targetPoint" />
          </mxGeometry>
        </mxCell>
        <mxCell id="0grsNlicwpP98fwowqwC-127" value="" style="endArrow=none;html=1;rounded=0;" edge="1" parent="1">
          <mxGeometry width="50" height="50" relative="1" as="geometry">
            <mxPoint x="270" y="400" as="sourcePoint" />
            <mxPoint x="360" y="400" as="targetPoint" />
          </mxGeometry>
        </mxCell>
        <mxCell id="0grsNlicwpP98fwowqwC-128" value="" style="endArrow=none;html=1;rounded=0;" edge="1" parent="1">
          <mxGeometry width="50" height="50" relative="1" as="geometry">
            <mxPoint x="290" y="420" as="sourcePoint" />
            <mxPoint x="360" y="420" as="targetPoint" />
          </mxGeometry>
        </mxCell>
        <mxCell id="0grsNlicwpP98fwowqwC-133" value="mux 4:1" style="shape=trapezoid;perimeter=trapezoidPerimeter;whiteSpace=wrap;html=1;fixedSize=1;rotation=90;" vertex="1" parent="1">
          <mxGeometry x="330" y="370" width="100" height="40" as="geometry" />
        </mxCell>
        <mxCell id="0grsNlicwpP98fwowqwC-134" value="" style="endArrow=none;html=1;rounded=0;exitX=0.5;exitY=0;exitDx=0;exitDy=0;" edge="1" parent="1">
          <mxGeometry width="50" height="50" relative="1" as="geometry">
            <mxPoint x="400" y="389.74" as="sourcePoint" />
            <mxPoint x="420" y="389.74" as="targetPoint" />
          </mxGeometry>
        </mxCell>
        <mxCell id="0grsNlicwpP98fwowqwC-135" value="&lt;span style=&quot;font-size: 8px;&quot;&gt;u&lt;/span&gt;" style="text;html=1;align=center;verticalAlign=middle;whiteSpace=wrap;rounded=0;" vertex="1" parent="1">
          <mxGeometry x="410" y="379.74" width="10" as="geometry" />
        </mxCell>
        <mxCell id="0grsNlicwpP98fwowqwC-136" value="" style="endArrow=none;html=1;rounded=0;" edge="1" parent="1">
          <mxGeometry width="50" height="50" relative="1" as="geometry">
            <mxPoint x="224.87" y="230" as="sourcePoint" />
            <mxPoint x="224.87" y="200" as="targetPoint" />
          </mxGeometry>
        </mxCell>
        <mxCell id="0grsNlicwpP98fwowqwC-137" value="" style="endArrow=none;html=1;rounded=0;" edge="1" parent="1">
          <mxGeometry width="50" height="50" relative="1" as="geometry">
            <mxPoint x="234.87" y="230" as="sourcePoint" />
            <mxPoint x="234.87" y="200" as="targetPoint" />
          </mxGeometry>
        </mxCell>
        <mxCell id="0grsNlicwpP98fwowqwC-138" value="&lt;span style=&quot;font-size: 6.66667px;&quot;&gt;c&lt;/span&gt;&lt;span style=&quot;font-size: 5.55556px;&quot;&gt;&lt;sub&gt;2&lt;/sub&gt;&lt;/span&gt;" style="text;html=1;align=center;verticalAlign=middle;whiteSpace=wrap;rounded=0;" vertex="1" parent="1">
          <mxGeometry x="220" y="230" width="10" as="geometry" />
        </mxCell>
        <mxCell id="0grsNlicwpP98fwowqwC-139" value="&lt;span style=&quot;font-size: 6.66667px;&quot;&gt;c&lt;/span&gt;&lt;span style=&quot;font-size: 5.55556px;&quot;&gt;&lt;sub&gt;3&lt;/sub&gt;&lt;/span&gt;" style="text;html=1;align=center;verticalAlign=middle;whiteSpace=wrap;rounded=0;" vertex="1" parent="1">
          <mxGeometry x="230" y="230" width="10" as="geometry" />
        </mxCell>
        <mxCell id="0grsNlicwpP98fwowqwC-140" value="" style="endArrow=none;html=1;rounded=0;" edge="1" parent="1">
          <mxGeometry width="50" height="50" relative="1" as="geometry">
            <mxPoint x="190" y="140" as="sourcePoint" />
            <mxPoint x="210" y="140" as="targetPoint" />
          </mxGeometry>
        </mxCell>
        <mxCell id="0grsNlicwpP98fwowqwC-141" value="" style="endArrow=none;html=1;rounded=0;" edge="1" parent="1">
          <mxGeometry width="50" height="50" relative="1" as="geometry">
            <mxPoint x="190" y="160" as="sourcePoint" />
            <mxPoint x="210" y="160" as="targetPoint" />
          </mxGeometry>
        </mxCell>
        <mxCell id="0grsNlicwpP98fwowqwC-142" value="" style="endArrow=none;html=1;rounded=0;" edge="1" parent="1">
          <mxGeometry width="50" height="50" relative="1" as="geometry">
            <mxPoint x="190" y="180" as="sourcePoint" />
            <mxPoint x="210" y="180" as="targetPoint" />
          </mxGeometry>
        </mxCell>
        <mxCell id="0grsNlicwpP98fwowqwC-143" value="" style="endArrow=none;html=1;rounded=0;" edge="1" parent="1">
          <mxGeometry width="50" height="50" relative="1" as="geometry">
            <mxPoint x="190" y="200" as="sourcePoint" />
            <mxPoint x="210" y="200" as="targetPoint" />
          </mxGeometry>
        </mxCell>
        <mxCell id="0grsNlicwpP98fwowqwC-144" value="&lt;font style=&quot;font-size: 8px;&quot;&gt;x&lt;sub&gt;0&lt;/sub&gt;&lt;/font&gt;" style="text;html=1;align=center;verticalAlign=middle;whiteSpace=wrap;rounded=0;" vertex="1" parent="1">
          <mxGeometry x="180" y="130" width="10" as="geometry" />
        </mxCell>
        <mxCell id="0grsNlicwpP98fwowqwC-145" value="&lt;font style=&quot;font-size: 8px;&quot;&gt;x&lt;/font&gt;&lt;font style=&quot;font-size: 6.66667px;&quot;&gt;&lt;sub&gt;1&lt;/sub&gt;&lt;/font&gt;" style="text;html=1;align=center;verticalAlign=middle;whiteSpace=wrap;rounded=0;" vertex="1" parent="1">
          <mxGeometry x="180" y="150" width="10" as="geometry" />
        </mxCell>
        <mxCell id="0grsNlicwpP98fwowqwC-146" value="&lt;font style=&quot;font-size: 8px;&quot;&gt;x&lt;sub&gt;2&lt;/sub&gt;&lt;/font&gt;" style="text;html=1;align=center;verticalAlign=middle;whiteSpace=wrap;rounded=0;" vertex="1" parent="1">
          <mxGeometry x="180" y="170" width="10" as="geometry" />
        </mxCell>
        <mxCell id="0grsNlicwpP98fwowqwC-147" value="&lt;font style=&quot;font-size: 8px;&quot;&gt;x&lt;sub&gt;3&lt;/sub&gt;&lt;/font&gt;" style="text;html=1;align=center;verticalAlign=middle;whiteSpace=wrap;rounded=0;" vertex="1" parent="1">
          <mxGeometry x="180" y="190" width="10" as="geometry" />
        </mxCell>
        <mxCell id="0grsNlicwpP98fwowqwC-148" value="mux 4:1" style="shape=trapezoid;perimeter=trapezoidPerimeter;whiteSpace=wrap;html=1;fixedSize=1;rotation=90;" vertex="1" parent="1">
          <mxGeometry x="180" y="150" width="100" height="40" as="geometry" />
        </mxCell>
        <mxCell id="0grsNlicwpP98fwowqwC-149" value="" style="endArrow=none;html=1;rounded=0;exitX=0.5;exitY=0;exitDx=0;exitDy=0;" edge="1" parent="1">
          <mxGeometry width="50" height="50" relative="1" as="geometry">
            <mxPoint x="249" y="169.74" as="sourcePoint" />
            <mxPoint x="290" y="170" as="targetPoint" />
          </mxGeometry>
        </mxCell>
        <mxCell id="0grsNlicwpP98fwowqwC-150" value="&lt;span style=&quot;font-size: 8px;&quot;&gt;u&lt;sub&gt;1&lt;/sub&gt;&lt;/span&gt;" style="text;html=1;align=center;verticalAlign=middle;whiteSpace=wrap;rounded=0;" vertex="1" parent="1">
          <mxGeometry x="260" y="159.74" width="10" as="geometry" />
        </mxCell>
        <mxCell id="0grsNlicwpP98fwowqwC-167" value="&lt;span style=&quot;font-size: 6.66667px;&quot;&gt;c&lt;/span&gt;&lt;span style=&quot;font-size: 5.55556px;&quot;&gt;&lt;sub&gt;3&lt;/sub&gt;&lt;/span&gt;" style="text;html=1;align=center;verticalAlign=middle;whiteSpace=wrap;rounded=0;" vertex="1" parent="1">
          <mxGeometry x="290" y="740" width="10" as="geometry" />
        </mxCell>
        <mxCell id="0grsNlicwpP98fwowqwC-173" value="" style="endArrow=none;html=1;rounded=0;" edge="1" parent="1">
          <mxGeometry width="50" height="50" relative="1" as="geometry">
            <mxPoint x="224.87" y="680" as="sourcePoint" />
            <mxPoint x="224.87" y="650" as="targetPoint" />
          </mxGeometry>
        </mxCell>
        <mxCell id="0grsNlicwpP98fwowqwC-174" value="" style="endArrow=none;html=1;rounded=0;" edge="1" parent="1">
          <mxGeometry width="50" height="50" relative="1" as="geometry">
            <mxPoint x="234.87" y="680" as="sourcePoint" />
            <mxPoint x="234.87" y="650" as="targetPoint" />
          </mxGeometry>
        </mxCell>
        <mxCell id="0grsNlicwpP98fwowqwC-175" value="&lt;span style=&quot;font-size: 6.66667px;&quot;&gt;c&lt;sub&gt;2&lt;/sub&gt;&lt;/span&gt;" style="text;html=1;align=center;verticalAlign=middle;whiteSpace=wrap;rounded=0;" vertex="1" parent="1">
          <mxGeometry x="220" y="680" width="10" as="geometry" />
        </mxCell>
        <mxCell id="0grsNlicwpP98fwowqwC-176" value="&lt;span style=&quot;font-size: 6.66667px;&quot;&gt;c&lt;/span&gt;&lt;span style=&quot;font-size: 5.55556px;&quot;&gt;&lt;sub&gt;3&lt;/sub&gt;&lt;/span&gt;" style="text;html=1;align=center;verticalAlign=middle;whiteSpace=wrap;rounded=0;" vertex="1" parent="1">
          <mxGeometry x="230" y="680" width="10" as="geometry" />
        </mxCell>
        <mxCell id="0grsNlicwpP98fwowqwC-103" value="mux 4:1" style="shape=trapezoid;perimeter=trapezoidPerimeter;whiteSpace=wrap;html=1;fixedSize=1;rotation=90;" vertex="1" parent="1">
          <mxGeometry x="180" y="605" width="100" height="40" as="geometry" />
        </mxCell>
        <mxCell id="0grsNlicwpP98fwowqwC-273" value="" style="endArrow=none;html=1;rounded=0;" edge="1" parent="1">
          <mxGeometry width="50" height="50" relative="1" as="geometry">
            <mxPoint x="130" y="244.75000000000003" as="sourcePoint" />
            <mxPoint x="150" y="244.75000000000003" as="targetPoint" />
          </mxGeometry>
        </mxCell>
        <mxCell id="0grsNlicwpP98fwowqwC-274" value="" style="endArrow=none;html=1;rounded=0;" edge="1" parent="1">
          <mxGeometry width="50" height="50" relative="1" as="geometry">
            <mxPoint x="130" y="264.75" as="sourcePoint" />
            <mxPoint x="150" y="264.75" as="targetPoint" />
          </mxGeometry>
        </mxCell>
        <mxCell id="0grsNlicwpP98fwowqwC-275" value="" style="endArrow=none;html=1;rounded=0;" edge="1" parent="1">
          <mxGeometry width="50" height="50" relative="1" as="geometry">
            <mxPoint x="130" y="284.75" as="sourcePoint" />
            <mxPoint x="150" y="284.75" as="targetPoint" />
          </mxGeometry>
        </mxCell>
        <mxCell id="0grsNlicwpP98fwowqwC-276" value="" style="endArrow=none;html=1;rounded=0;" edge="1" parent="1">
          <mxGeometry width="50" height="50" relative="1" as="geometry">
            <mxPoint x="130" y="304.75" as="sourcePoint" />
            <mxPoint x="150" y="304.75" as="targetPoint" />
          </mxGeometry>
        </mxCell>
        <mxCell id="0grsNlicwpP98fwowqwC-277" value="" style="endArrow=none;html=1;rounded=0;" edge="1" parent="1">
          <mxGeometry width="50" height="50" relative="1" as="geometry">
            <mxPoint x="130" y="324.75" as="sourcePoint" />
            <mxPoint x="150" y="324.75" as="targetPoint" />
          </mxGeometry>
        </mxCell>
        <mxCell id="0grsNlicwpP98fwowqwC-278" value="" style="endArrow=none;html=1;rounded=0;" edge="1" parent="1">
          <mxGeometry width="50" height="50" relative="1" as="geometry">
            <mxPoint x="130" y="344.75" as="sourcePoint" />
            <mxPoint x="150" y="344.75" as="targetPoint" />
          </mxGeometry>
        </mxCell>
        <mxCell id="0grsNlicwpP98fwowqwC-279" value="" style="endArrow=none;html=1;rounded=0;" edge="1" parent="1">
          <mxGeometry width="50" height="50" relative="1" as="geometry">
            <mxPoint x="130" y="364.75" as="sourcePoint" />
            <mxPoint x="150" y="364.75" as="targetPoint" />
          </mxGeometry>
        </mxCell>
        <mxCell id="0grsNlicwpP98fwowqwC-280" value="" style="endArrow=none;html=1;rounded=0;" edge="1" parent="1">
          <mxGeometry width="50" height="50" relative="1" as="geometry">
            <mxPoint x="130" y="384.75" as="sourcePoint" />
            <mxPoint x="150" y="384.75" as="targetPoint" />
          </mxGeometry>
        </mxCell>
        <mxCell id="0grsNlicwpP98fwowqwC-281" value="" style="endArrow=none;html=1;rounded=0;" edge="1" parent="1">
          <mxGeometry width="50" height="50" relative="1" as="geometry">
            <mxPoint x="130" y="404.75" as="sourcePoint" />
            <mxPoint x="150" y="404.75" as="targetPoint" />
          </mxGeometry>
        </mxCell>
        <mxCell id="0grsNlicwpP98fwowqwC-282" value="" style="endArrow=none;html=1;rounded=0;" edge="1" parent="1">
          <mxGeometry width="50" height="50" relative="1" as="geometry">
            <mxPoint x="130" y="424.75" as="sourcePoint" />
            <mxPoint x="150" y="424.75" as="targetPoint" />
          </mxGeometry>
        </mxCell>
        <mxCell id="0grsNlicwpP98fwowqwC-283" value="" style="endArrow=none;html=1;rounded=0;" edge="1" parent="1">
          <mxGeometry width="50" height="50" relative="1" as="geometry">
            <mxPoint x="130" y="444.75" as="sourcePoint" />
            <mxPoint x="150" y="444.75" as="targetPoint" />
          </mxGeometry>
        </mxCell>
        <mxCell id="0grsNlicwpP98fwowqwC-284" value="" style="endArrow=none;html=1;rounded=0;" edge="1" parent="1">
          <mxGeometry width="50" height="50" relative="1" as="geometry">
            <mxPoint x="130" y="464.75" as="sourcePoint" />
            <mxPoint x="150" y="464.75" as="targetPoint" />
          </mxGeometry>
        </mxCell>
        <mxCell id="0grsNlicwpP98fwowqwC-285" value="" style="endArrow=none;html=1;rounded=0;" edge="1" parent="1">
          <mxGeometry width="50" height="50" relative="1" as="geometry">
            <mxPoint x="130" y="484.75" as="sourcePoint" />
            <mxPoint x="150" y="484.75" as="targetPoint" />
          </mxGeometry>
        </mxCell>
        <mxCell id="0grsNlicwpP98fwowqwC-286" value="" style="endArrow=none;html=1;rounded=0;" edge="1" parent="1">
          <mxGeometry width="50" height="50" relative="1" as="geometry">
            <mxPoint x="130" y="504.74999999999994" as="sourcePoint" />
            <mxPoint x="150" y="504.74999999999994" as="targetPoint" />
          </mxGeometry>
        </mxCell>
        <mxCell id="0grsNlicwpP98fwowqwC-287" value="" style="endArrow=none;html=1;rounded=0;" edge="1" parent="1">
          <mxGeometry width="50" height="50" relative="1" as="geometry">
            <mxPoint x="130" y="524.75" as="sourcePoint" />
            <mxPoint x="150" y="524.75" as="targetPoint" />
          </mxGeometry>
        </mxCell>
        <mxCell id="0grsNlicwpP98fwowqwC-288" value="" style="endArrow=none;html=1;rounded=0;" edge="1" parent="1">
          <mxGeometry width="50" height="50" relative="1" as="geometry">
            <mxPoint x="130" y="544.75" as="sourcePoint" />
            <mxPoint x="150" y="544.75" as="targetPoint" />
          </mxGeometry>
        </mxCell>
        <mxCell id="0grsNlicwpP98fwowqwC-289" value="&lt;font style=&quot;font-size: 8px;&quot;&gt;x&lt;sub&gt;0&lt;/sub&gt;&lt;/font&gt;" style="text;html=1;align=center;verticalAlign=middle;whiteSpace=wrap;rounded=0;" vertex="1" parent="1">
          <mxGeometry x="120" y="234.75000000000003" width="10" as="geometry" />
        </mxCell>
        <mxCell id="0grsNlicwpP98fwowqwC-290" value="&lt;font style=&quot;font-size: 8px;&quot;&gt;x&lt;/font&gt;&lt;font style=&quot;font-size: 6.66667px;&quot;&gt;&lt;sub&gt;1&lt;/sub&gt;&lt;/font&gt;" style="text;html=1;align=center;verticalAlign=middle;whiteSpace=wrap;rounded=0;" vertex="1" parent="1">
          <mxGeometry x="120" y="254.75000000000003" width="10" as="geometry" />
        </mxCell>
        <mxCell id="0grsNlicwpP98fwowqwC-291" value="&lt;font style=&quot;font-size: 8px;&quot;&gt;x&lt;sub&gt;2&lt;/sub&gt;&lt;/font&gt;" style="text;html=1;align=center;verticalAlign=middle;whiteSpace=wrap;rounded=0;" vertex="1" parent="1">
          <mxGeometry x="120" y="274.75" width="10" as="geometry" />
        </mxCell>
        <mxCell id="0grsNlicwpP98fwowqwC-292" value="&lt;font style=&quot;font-size: 8px;&quot;&gt;x&lt;sub&gt;3&lt;/sub&gt;&lt;/font&gt;" style="text;html=1;align=center;verticalAlign=middle;whiteSpace=wrap;rounded=0;" vertex="1" parent="1">
          <mxGeometry x="120" y="294.75" width="10" as="geometry" />
        </mxCell>
        <mxCell id="0grsNlicwpP98fwowqwC-293" value="&lt;font style=&quot;font-size: 8px;&quot;&gt;x&lt;sub&gt;4&lt;/sub&gt;&lt;/font&gt;" style="text;html=1;align=center;verticalAlign=middle;whiteSpace=wrap;rounded=0;" vertex="1" parent="1">
          <mxGeometry x="120" y="314.75" width="10" as="geometry" />
        </mxCell>
        <mxCell id="0grsNlicwpP98fwowqwC-294" value="&lt;font style=&quot;font-size: 8px;&quot;&gt;x&lt;sub&gt;5&lt;/sub&gt;&lt;/font&gt;" style="text;html=1;align=center;verticalAlign=middle;whiteSpace=wrap;rounded=0;" vertex="1" parent="1">
          <mxGeometry x="120" y="334.75" width="10" as="geometry" />
        </mxCell>
        <mxCell id="0grsNlicwpP98fwowqwC-295" value="&lt;font style=&quot;font-size: 8px;&quot;&gt;x&lt;sub&gt;6&lt;/sub&gt;&lt;/font&gt;" style="text;html=1;align=center;verticalAlign=middle;whiteSpace=wrap;rounded=0;" vertex="1" parent="1">
          <mxGeometry x="120" y="354.75" width="10" as="geometry" />
        </mxCell>
        <mxCell id="0grsNlicwpP98fwowqwC-296" value="&lt;font style=&quot;font-size: 8px;&quot;&gt;x&lt;sub&gt;7&lt;/sub&gt;&lt;/font&gt;" style="text;html=1;align=center;verticalAlign=middle;whiteSpace=wrap;rounded=0;" vertex="1" parent="1">
          <mxGeometry x="120" y="374.75" width="10" as="geometry" />
        </mxCell>
        <mxCell id="0grsNlicwpP98fwowqwC-297" value="&lt;font style=&quot;font-size: 8px;&quot;&gt;x&lt;sub&gt;8&lt;/sub&gt;&lt;/font&gt;" style="text;html=1;align=center;verticalAlign=middle;whiteSpace=wrap;rounded=0;" vertex="1" parent="1">
          <mxGeometry x="120" y="394.75" width="10" as="geometry" />
        </mxCell>
        <mxCell id="0grsNlicwpP98fwowqwC-298" value="&lt;font style=&quot;font-size: 8px;&quot;&gt;x&lt;sub&gt;9&lt;/sub&gt;&lt;/font&gt;" style="text;html=1;align=center;verticalAlign=middle;whiteSpace=wrap;rounded=0;" vertex="1" parent="1">
          <mxGeometry x="120" y="414.75" width="10" as="geometry" />
        </mxCell>
        <mxCell id="0grsNlicwpP98fwowqwC-299" value="&lt;font style=&quot;font-size: 8px;&quot;&gt;x&lt;sub&gt;10&lt;/sub&gt;&lt;/font&gt;" style="text;html=1;align=center;verticalAlign=middle;whiteSpace=wrap;rounded=0;" vertex="1" parent="1">
          <mxGeometry x="120" y="434.75" width="10" as="geometry" />
        </mxCell>
        <mxCell id="0grsNlicwpP98fwowqwC-300" value="&lt;font style=&quot;font-size: 8px;&quot;&gt;x&lt;sub&gt;11&lt;/sub&gt;&lt;/font&gt;" style="text;html=1;align=center;verticalAlign=middle;whiteSpace=wrap;rounded=0;" vertex="1" parent="1">
          <mxGeometry x="120" y="454.75" width="10" as="geometry" />
        </mxCell>
        <mxCell id="0grsNlicwpP98fwowqwC-301" value="&lt;font style=&quot;font-size: 8px;&quot;&gt;x&lt;sub&gt;12&lt;/sub&gt;&lt;/font&gt;" style="text;html=1;align=center;verticalAlign=middle;whiteSpace=wrap;rounded=0;" vertex="1" parent="1">
          <mxGeometry x="120" y="474.75" width="10" as="geometry" />
        </mxCell>
        <mxCell id="0grsNlicwpP98fwowqwC-302" value="&lt;font style=&quot;font-size: 8px;&quot;&gt;x&lt;sub&gt;13&lt;/sub&gt;&lt;/font&gt;" style="text;html=1;align=center;verticalAlign=middle;whiteSpace=wrap;rounded=0;" vertex="1" parent="1">
          <mxGeometry x="120" y="494.74999999999994" width="10" as="geometry" />
        </mxCell>
        <mxCell id="0grsNlicwpP98fwowqwC-303" value="&lt;font style=&quot;font-size: 8px;&quot;&gt;x&lt;sub&gt;14&lt;/sub&gt;&lt;/font&gt;" style="text;html=1;align=center;verticalAlign=middle;whiteSpace=wrap;rounded=0;" vertex="1" parent="1">
          <mxGeometry x="120" y="514.75" width="10" as="geometry" />
        </mxCell>
        <mxCell id="0grsNlicwpP98fwowqwC-304" value="&lt;font style=&quot;font-size: 8px;&quot;&gt;x&lt;sub&gt;15&lt;/sub&gt;&lt;/font&gt;" style="text;html=1;align=center;verticalAlign=middle;whiteSpace=wrap;rounded=0;" vertex="1" parent="1">
          <mxGeometry x="120" y="534.75" width="10" as="geometry" />
        </mxCell>
        <mxCell id="0grsNlicwpP98fwowqwC-305" value="" style="endArrow=none;html=1;rounded=0;" edge="1" parent="1">
          <mxGeometry width="50" height="50" relative="1" as="geometry">
            <mxPoint x="270" y="470" as="sourcePoint" />
            <mxPoint x="270" y="400" as="targetPoint" />
          </mxGeometry>
        </mxCell>
        <mxCell id="0grsNlicwpP98fwowqwC-306" value="" style="endArrow=none;html=1;rounded=0;" edge="1" parent="1">
          <mxGeometry width="50" height="50" relative="1" as="geometry">
            <mxPoint x="270" y="380" as="sourcePoint" />
            <mxPoint x="270" y="309.75" as="targetPoint" />
          </mxGeometry>
        </mxCell>
        <mxCell id="0grsNlicwpP98fwowqwC-307" value="" style="endArrow=none;html=1;rounded=0;" edge="1" parent="1">
          <mxGeometry width="50" height="50" relative="1" as="geometry">
            <mxPoint x="290" y="630" as="sourcePoint" />
            <mxPoint x="290" y="420" as="targetPoint" />
          </mxGeometry>
        </mxCell>
        <mxCell id="0grsNlicwpP98fwowqwC-340" value="" style="endArrow=none;html=1;rounded=0;" edge="1" parent="1">
          <mxGeometry width="50" height="50" relative="1" as="geometry">
            <mxPoint x="290" y="359.75" as="sourcePoint" />
            <mxPoint x="290" y="170" as="targetPoint" />
          </mxGeometry>
        </mxCell>
      </root>
    </mxGraphModel>
  </diagram>
</mxfile>
